<?xml version="1.0" standalone="no"?>
<!DOCTYPE svg PUBLIC "-//W3C//DTD SVG 20010904//EN"
 "http://www.w3.org/TR/2001/REC-SVG-20010904/DTD/svg10.dtd">
<svg version="1.0" xmlns="http://www.w3.org/2000/svg"
 width="2110.000000pt" height="2110.000000pt" viewBox="0 0 2110.000000 2110.000000"
 preserveAspectRatio="xMidYMid meet">
<metadata>
Created by potrace 1.11, written by Peter Selinger 2001-2013
</metadata>
<g transform="translate(0.000000,2110.000000) scale(0.100000,-0.100000)"
fill="#000000" stroke="none">
<path d="M10220 21074 c-48 -30 -65 -86 -65 -208 1 -125 4 -149 40 -331 33
-164 21 -112 110 -465 84 -337 132 -562 140 -666 4 -38 8 -81 10 -96 3 -26 0
-28 -83 -53 -48 -15 -98 -31 -112 -35 -24 -9 -137 -38 -170 -45 -8 -2 -35 -8
-60 -15 -25 -7 -52 -13 -60 -15 -128 -26 -383 -109 -535 -175 -98 -42 -122
-54 -265 -125 -585 -290 -1157 -716 -1510 -1125 -30 -35 -59 -68 -65 -74 -63
-69 -301 -416 -412 -601 -226 -378 -374 -712 -399 -905 -3 -25 -7 -49 -8 -53
-1 -10 41 -27 154 -61 208 -63 641 -196 700 -215 36 -12 74 -23 85 -26 11 -2
94 -27 185 -55 91 -28 244 -75 340 -105 204 -62 394 -120 465 -143 28 -8 55
-16 60 -18 11 -2 103 -30 470 -142 143 -44 276 -85 295 -90 35 -10 407 -124
680 -208 80 -25 152 -46 160 -48 8 -3 69 -21 135 -41 66 -20 147 -45 180 -55
101 -30 476 -144 740 -225 138 -42 311 -94 385 -116 149 -45 143 -43 525 -159
149 -45 315 -95 370 -111 55 -16 120 -36 145 -44 25 -9 122 -38 215 -66 94
-27 190 -57 215 -64 25 -8 227 -69 450 -136 395 -117 539 -160 805 -239 72
-21 238 -70 370 -110 132 -39 293 -87 358 -106 64 -19 170 -49 235 -68 64 -19
149 -44 187 -56 187 -55 655 -186 806 -225 153 -39 170 -42 178 -27 9 17 76
255 85 302 31 157 55 299 61 351 4 35 9 72 11 82 19 100 26 651 11 837 -11
138 -29 284 -42 350 -3 14 -7 41 -9 60 -23 202 -168 720 -257 917 -10 24 -19
46 -19 49 0 14 -97 229 -165 364 -229 457 -531 885 -881 1249 l-92 95 22 32
c52 77 167 197 626 654 269 267 500 503 514 526 73 113 18 239 -103 237 -60
-1 -127 -35 -222 -112 -70 -57 -725 -704 -930 -918 -53 -56 -114 -113 -136
-127 -52 -35 -40 -41 -358 194 -360 267 -665 451 -975 588 -25 11 -61 27 -80
36 -295 130 -930 314 -1355 392 -49 9 -99 18 -110 20 -11 2 -42 6 -70 9 -27 3
-57 8 -65 10 -8 2 -42 7 -75 10 -33 4 -73 9 -90 10 -198 22 -638 21 -738 -1
-12 -3 -108 -7 -213 -10 -147 -3 -194 -1 -202 9 -11 13 -68 218 -78 282 -3 22
-8 43 -10 46 -3 6 -52 222 -60 269 -2 14 -7 36 -10 50 -3 14 -8 34 -10 45 -2
11 -6 29 -8 40 -11 48 -118 582 -122 605 -2 14 -9 45 -14 70 -5 25 -13 61 -16
80 -6 37 -6 37 -19 90 -11 51 -52 122 -83 145 -35 26 -128 32 -162 9z"/>
<path d="M4718 18030 c-207 -42 -392 -142 -552 -296 -105 -101 -190 -257 -222
-404 -21 -100 -15 -292 10 -318 13 -13 161 -6 223 11 110 29 207 80 318 167
92 72 147 130 199 210 102 157 155 346 167 590 3 55 3 55 -27 56 -16 1 -69 -7
-116 -16z"/>
<path d="M3258 17015 c-2 -2 -31 -5 -65 -8 -163 -16 -332 -97 -498 -241 -62
-54 -88 -80 -159 -160 -105 -120 -212 -347 -241 -515 -3 -19 -8 -38 -11 -42
-23 -37 -23 -471 0 -540 3 -7 7 -32 10 -54 11 -84 28 -159 76 -330 14 -50 59
-183 70 -210 5 -11 28 -66 50 -123 163 -404 379 -693 627 -838 104 -61 243
-90 338 -70 79 17 113 27 170 51 66 28 213 75 255 81 130 18 216 5 504 -80
246 -72 352 -71 505 6 143 72 284 226 444 485 31 51 57 95 57 98 0 3 11 24 25
46 29 45 156 297 175 347 15 40 20 34 -135 171 -142 125 -182 167 -233 241
-97 143 -134 269 -134 455 1 131 31 251 90 355 20 36 39 70 41 75 2 6 7 12 10
15 3 3 26 30 51 60 50 60 135 143 192 187 43 32 42 42 -7 118 -48 73 -120 145
-226 225 -181 136 -297 180 -484 186 -169 4 -262 -16 -539 -118 -87 -32 -182
-62 -210 -66 -59 -9 -86 -2 -273 76 -147 62 -220 87 -293 101 -51 10 -177 20
-182 16z"/>
<path d="M2112 15565 c-153 -71 -360 -377 -431 -635 -31 -110 -36 -152 -36
-285 0 -119 6 -178 24 -245 48 -176 88 -265 236 -530 48 -86 107 -197 225
-425 46 -88 105 -203 133 -255 45 -87 79 -151 267 -515 34 -66 88 -169 120
-230 32 -60 90 -173 130 -250 40 -77 96 -185 125 -240 29 -55 87 -167 130
-250 43 -82 106 -204 140 -270 133 -255 181 -348 297 -575 180 -351 297 -574
351 -665 16 -27 44 -78 63 -112 19 -35 49 -91 68 -126 58 -107 88 -160 127
-227 93 -159 233 -288 403 -373 377 -189 750 -176 1128 41 54 31 122 74 128
81 3 3 21 18 40 32 126 95 249 265 307 424 65 180 95 435 69 585 -35 200 -89
333 -265 650 -23 41 -65 120 -93 175 -28 55 -64 125 -81 155 -30 55 -54 102
-67 130 -4 8 -29 58 -57 110 -28 52 -85 163 -128 245 -142 275 -227 439 -280
540 -29 55 -90 172 -135 260 -45 88 -106 205 -135 260 -29 55 -92 177 -140
270 -197 381 -191 371 -235 392 -22 11 -167 56 -217 68 -10 3 -61 17 -113 31
-83 23 -114 27 -250 28 -98 0 -172 -4 -200 -12 -25 -7 -101 -30 -170 -51 -164
-51 -173 -53 -257 -57 -367 -17 -752 407 -981 1081 -82 242 -123 409 -162 662
-11 69 -21 127 -23 129 -1 2 -26 -8 -55 -21z"/>
<path d="M18248 12595 c-2 -1 -32 -5 -68 -8 -289 -26 -540 -156 -743 -387
-150 -171 -233 -349 -252 -542 -3 -35 -8 -81 -10 -103 -16 -162 -28 -4614 -13
-4945 7 -156 15 -216 42 -301 92 -297 346 -584 626 -711 358 -162 804 -130
1114 80 247 167 440 451 471 692 4 29 9 62 11 74 9 47 14 339 19 1041 3 407 8
992 11 1300 12 1038 7 2229 -11 2705 -8 187 -43 345 -107 475 -188 379 -560
613 -1000 629 -48 2 -89 2 -90 1z"/>
<path d="M12164 12401 c-2 -2 -1137 -5 -2521 -7 -2279 -3 -2991 -8 -3123 -18
-25 -2 -52 -4 -61 -5 -10 -1 -16 -11 -16 -28 0 -16 -4 -143 -8 -283 -4 -140
-7 -649 -6 -1130 6 -1893 4 -3999 -4 -4460 -14 -929 -6 -1324 36 -1685 11 -95
11 -95 29 -190 34 -178 131 -351 284 -513 186 -196 448 -332 686 -357 30 -3
73 -8 95 -12 22 -3 209 -7 415 -8 350 -2 480 -11 494 -33 26 -43 36 -316 41
-1197 6 -887 13 -1370 19 -1415 3 -19 7 -55 10 -80 3 -25 8 -56 11 -70 3 -14
10 -49 16 -78 28 -146 134 -335 260 -464 199 -203 435 -323 699 -354 49 -6
229 -6 265 0 17 2 48 7 70 11 53 8 171 42 215 62 203 91 319 174 454 324 81
89 125 154 172 252 34 73 77 228 88 322 12 94 16 412 21 1385 3 536 7 1011 10
1055 8 129 15 219 18 240 5 25 -70 22 791 26 683 4 689 4 692 -16 3 -20 11
-94 20 -195 3 -30 7 -386 9 -790 6 -954 13 -1596 18 -1640 3 -19 7 -62 11 -95
6 -50 10 -76 21 -135 9 -47 45 -141 76 -199 56 -104 124 -184 288 -334 160
-147 326 -229 534 -265 23 -4 123 -7 222 -7 164 1 190 3 290 29 105 27 247 89
317 138 55 38 158 129 212 187 28 29 56 59 61 65 108 113 198 292 224 444 26
149 29 260 36 1577 3 506 7 961 10 1010 8 159 15 219 23 227 5 5 202 10 438
12 236 2 438 5 449 8 11 3 46 9 79 13 284 34 523 142 697 315 197 195 303 427
333 725 4 33 9 83 12 110 21 193 29 475 26 1025 -1 289 -2 860 -1 1270 5 4187
4 4611 -16 4990 -5 96 -15 202 -20 210 -2 4 -59 8 -127 9 -68 2 -184 4 -258 6
-686 15 -4123 29 -4136 16z"/>
</g>
</svg>
